HIERARCHY
ROOT Hips
{
  OFFSET -69.4423 88.0299 51.6846
  CHANNELS 6 Xposition Yposition Zposition Zrotation Xrotation Yrotation
  JOINT Spine
  {
    OFFSET 12.0259 -0.162853 1.93176e-005
    CHANNELS 3 Zrotation Xrotation Yrotation
    JOINT Spine1
    {
      OFFSET 15.3169 -0.0121909 0
      CHANNELS 3 Zrotation Xrotation Yrotation
      JOINT Spine2
      {
        OFFSET 15.3176 -0.0121922 0
        CHANNELS 3 Zrotation Xrotation Yrotation
        JOINT Neck
        {
          OFFSET 19.9142 1.56236 0
          CHANNELS 3 Zrotation Xrotation Yrotation
          JOINT Head
          {
            OFFSET 6.92646 0 0
            CHANNELS 3 Zrotation Xrotation Yrotation
            End Site
            {
              OFFSET 20.7666 0 0
            }
          }
          JOINT LeftShoulder
          {
            OFFSET -4.94072 -1.14703 8.14416
            CHANNELS 3 Zrotation Xrotation Yrotation
            JOINT LeftArm
            {
              OFFSET 14.108 0 -2.74767e-005
              CHANNELS 3 Zrotation Xrotation Yrotation
              JOINT LeftForeArm
              {
                OFFSET 28.5802 -0.0783412 -0.0284884
                CHANNELS 3 Zrotation Xrotation Yrotation
                JOINT LeftHand
                {
                  OFFSET 27.092 0 0
                  CHANNELS 3 Zrotation Xrotation Yrotation
                  End Site
                  {
                    OFFSET 9.55928 -0.186424 0.145352
                  }
                }
              }
            }
          }
          JOINT RightShoulder
          {
            OFFSET -7.15748 -1.33027 -6.24935
            CHANNELS 3 Zrotation Xrotation Yrotation
            JOINT RightArm
            {
              OFFSET 14.108 0 1.82997e-005
              CHANNELS 3 Zrotation Xrotation Yrotation
              JOINT RightForeArm
              {
                OFFSET 28.5802 -0.0707221 2.30684e-005
                CHANNELS 3 Zrotation Xrotation Yrotation
                JOINT RightHand
                {
                  OFFSET 27.092 0 -1.30073e-005
                  CHANNELS 3 Zrotation Xrotation Yrotation
                  End Site
                  {
                    OFFSET 9.55929 -0.186417 -0.145354
                  }
                }
              }
            }
          }
        }
      }
    }
  }
  JOINT LeftUpLeg
  {
    OFFSET 0.00499725 -0.534999 8.837
    CHANNELS 3 Zrotation Xrotation Yrotation
    JOINT LeftLeg
    {
      OFFSET 39.9035 -0.00124594 0.000252775
      CHANNELS 3 Zrotation Xrotation Yrotation
      JOINT LeftFoot
      {
        OFFSET 39.6689 0 0
        CHANNELS 3 Zrotation Xrotation Yrotation
        JOINT LeftToe
        {
          OFFSET 10.1624 13.6296 0
          CHANNELS 3 Zrotation Xrotation Yrotation
          End Site
          {
            OFFSET 8.38147 0 0
          }
        }
      }
    }
  }
  JOINT RightUpLeg
  {
    OFFSET 0.00499725 -0.535 -8.837
    CHANNELS 3 Zrotation Xrotation Yrotation
    JOINT RightLeg
    {
      OFFSET 39.9036 -0.000268477 0.000106433
      CHANNELS 3 Zrotation Xrotation Yrotation
      JOINT RightFoot
      {
        OFFSET 39.6689 1.17892e-005 0
        CHANNELS 3 Zrotation Xrotation Yrotation
        JOINT RightToe
        {
          OFFSET 10.1624 13.6296 0
          CHANNELS 3 Zrotation Xrotation Yrotation
          End Site
          {
            OFFSET 8.38147 0 0
          }
        }
      }
    }
  }
}
MOTION
Frames:	6
Frame Time:	0.0333333
56.7205 87.6906 -55.6197 89.6878 42.4812 -0.539707 0.967885 0.0890359 0.388474 1.93515 0.185061 0.775548 1.93514 0.185044 0.775541 -16.6596 -1.79168 -12.9992 38.3867 -1.75559 12.3114 -165.537 -3.72413 -95.0574 -29.0875 3.65531 79.5025 -19.5421 1.48952 -12.6596 16.6229 -84.4143 19.2729 -165.924 -6.9431 72.3056 -19.9494 -4.28235 -83.7316 -22.0176 -2.12565 13.2589 2.76972 81.3091 -2.53236 -8.64663 -2.19135 -175.586 -33.8266 0.926015 -1.3421 5.31714 -1.36505 1.20856 90 -1.43125e-014 -6.36111e-015 -7.2787 -3.6695 -174.92 -36.3797 -0.675684 0.656129 8.62969 6.66521 -1.21211 90 3.18055e-015 6.36111e-015 
56.2257 87.7767 -55.9339 89.4314 42.2045 -1.02044 1.02717 0.362176 0.48687 2.05129 0.733634 0.967337 2.05128 0.733638 0.967335 -16.3707 -1.58458 -12.872 40.2153 -1.28219 12.1403 -165.797 -3.43654 -95.0492 -25.4917 3.08337 79.6802 -19.9924 1.57317 -12.9325 15.0033 -84.0061 17.6233 -166.159 -6.63045 72.3356 -19.277 -4.46385 -83.6387 -21.7035 -2.0641 13.0719 2.77219 81.1362 -2.52576 -10.525 -2.97414 -174.992 -37.6967 0.883539 -1.18673 4.20817 -1.58509 0.989484 90 1.59028e-015 6.36111e-015 -6.34326 -3.65576 -173.91 -35.0942 -0.705625 0.647884 8.02151 6.45065 -1.10552 90 -7.95139e-015 3.18055e-015 
55.741 87.9023 -56.2488 89.1006 42.0787 -1.53221 1.11884 0.546004 0.626185 2.2318 1.10459 1.24182 2.2318 1.10455 1.24181 -15.5212 -1.37058 -12.7679 40.1898 -0.713004 11.9452 -166.59 -3.05412 -95.0961 -22.9182 2.8351 79.8596 -20.3602 1.64274 -13.1374 21.8231 -85.4762 24.5308 -166.914 -6.23327 72.2779 -17.8706 -4.26065 -83.2301 -20.8855 -1.91398 12.6082 2.59401 80.4584 -2.33869 -13.2735 -2.975 -174.03 -42.5265 0.784616 -0.973678 2.20464 -0.446117 0.861537 90 -2.54444e-014 -2.54444e-014 -5.21657 -3.71412 -172.792 -33.6057 -0.742735 0.633165 7.34829 6.34282 -0.969836 90 -9.54166e-015 3.18055e-015 
55.3062 88.0304 -56.2675 88.517 41.7593 -0.33394 1.33679 0.795041 0.443756 2.66777 1.60064 0.869121 2.66778 1.60064 0.869109 -15.4298 -1.43957 -12.9843 40.6487 -0.487747 12.5244 -166.723 -3.22723 -95.288 -21.1105 2.80342 80.0104 -20.8072 1.71753 -13.369 26.398 -86.045 29.1018 -166.983 -6.36805 72.0622 -15.4913 -3.34178 -82.8836 -19.9746 -1.75859 12.1044 2.36299 79.2344 -2.08245 -15.9989 -2.59556 -174.584 -47.1285 0.701167 -0.785947 -0.837861 1.92015 0.943889 90 6.36111e-015 3.18055e-015 -4.34145 -3.45047 -173.397 -33.0008 -0.765407 0.622352 7.25718 6.12775 -0.948317 90 -3.49861e-014 -3.18055e-014 
54.762 88.194 -56.4171 88.2008 41.2967 -0.847651 1.49117 1.07264 0.580453 2.97218 2.1605 1.13323 2.97218 2.16051 1.13322 -15.9788 -1.39248 -12.5144 41.8262 -1.07238 11.5225 -166.171 -3.17252 -94.839 -20.7213 3.28109 80.2043 -20.8991 1.73468 -13.3962 23.381 -85.3955 26.0821 -166.386 -6.24572 72.4964 -14.9817 -3.30257 -82.4961 -19.7257 -1.72019 11.9555 2.47973 79.5716 -2.21331 -19.0171 -2.9112 -173.693 -51.4561 0.564173 -0.645347 -3.96938 3.27758 0.994425 90 -1.11319e-014 -1.27222e-014 -3.03663 -3.25544 -172.403 -31.3349 -0.801241 0.616802 6.6582 5.65121 -0.866564 90 -2.22639e-014 -3.18055e-014 
54.2611 88.2533 -56.401 88.2334 40.7649 -1.48613 1.56838 1.35546 0.689106 3.12166 2.72972 1.34154 3.12165 2.7297 1.34153 -15.782 -1.45237 -12.5194 41.6633 -1.09522 11.6499 -166.397 -3.26086 -94.862 -21.0839 4.01849 80.2651 -21.0814 1.75725 -13.4682 25.4604 -85.7619 28.208 -166.579 -6.25868 72.5043 -15.2057 -3.61352 -82.2324 -19.8442 -1.728 11.9929 2.65215 79.9751 -2.39107 -21.713 -3.17536 -172.927 -53.9285 0.48093 -0.61123 -3.13234 5.04019 1.37213 90 1.11319e-014 3.18055e-015 -2.16364 -3.15079 -171.72 -30.0986 -0.828909 0.602199 6.49984 4.63895 -0.960032 90 2.14687e-014 1.27222e-014 
